<mxfile host="app.diagrams.net" modified="2022-03-21T11:16:13.849Z" agent="5.0 (Macintosh; Intel Mac OS X 10_15_7) AppleWebKit/537.36 (KHTML, like Gecko) Chrome/98.0.4758.102 Safari/537.36 Edg/98.0.1108.62" etag="9DSRgZNoxUDBs6orC5sS" version="17.1.3" type="github">
  <diagram id="7bVU9Z46m-9sr9gc6tOM" name="Page-1">
    <mxGraphModel dx="1474" dy="903" grid="1" gridSize="10" guides="1" tooltips="1" connect="1" arrows="1" fold="1" page="1" pageScale="1" pageWidth="1100" pageHeight="1700" math="0" shadow="0">
      <root>
        <mxCell id="0" />
        <mxCell id="1" parent="0" />
        <mxCell id="z1qEJw_-4ceB0nApJG-8-1" value="BE" style="rounded=0;whiteSpace=wrap;html=1;" vertex="1" parent="1">
          <mxGeometry x="170" y="220" width="120" height="60" as="geometry" />
        </mxCell>
        <mxCell id="z1qEJw_-4ceB0nApJG-8-2" value="FE" style="rounded=0;whiteSpace=wrap;html=1;" vertex="1" parent="1">
          <mxGeometry x="870" y="220" width="120" height="60" as="geometry" />
        </mxCell>
        <mxCell id="z1qEJw_-4ceB0nApJG-8-3" value="/path/to/document.pdf&lt;br&gt;password" style="endArrow=classic;html=1;rounded=0;" edge="1" parent="1" source="z1qEJw_-4ceB0nApJG-8-1" target="z1qEJw_-4ceB0nApJG-8-2">
          <mxGeometry width="50" height="50" relative="1" as="geometry">
            <mxPoint x="420" y="270" as="sourcePoint" />
            <mxPoint x="470" y="220" as="targetPoint" />
          </mxGeometry>
        </mxCell>
        <mxCell id="z1qEJw_-4ceB0nApJG-8-5" value="Document Service" style="rounded=0;whiteSpace=wrap;html=1;" vertex="1" parent="1">
          <mxGeometry x="160" y="460" width="120" height="60" as="geometry" />
        </mxCell>
        <mxCell id="z1qEJw_-4ceB0nApJG-8-6" value="/path/to/document.pdf&lt;br&gt;password" style="endArrow=classic;html=1;rounded=0;exitX=0;exitY=1;exitDx=0;exitDy=0;entryX=1;entryY=0;entryDx=0;entryDy=0;" edge="1" parent="1" source="z1qEJw_-4ceB0nApJG-8-2" target="z1qEJw_-4ceB0nApJG-8-5">
          <mxGeometry width="50" height="50" relative="1" as="geometry">
            <mxPoint x="630" y="460" as="sourcePoint" />
            <mxPoint x="680" y="410" as="targetPoint" />
          </mxGeometry>
        </mxCell>
        <mxCell id="z1qEJw_-4ceB0nApJG-8-7" value="create password" style="endArrow=classic;html=1;rounded=0;exitX=0.383;exitY=1.017;exitDx=0;exitDy=0;exitPerimeter=0;" edge="1" parent="1" source="z1qEJw_-4ceB0nApJG-8-1" target="z1qEJw_-4ceB0nApJG-8-5">
          <mxGeometry width="50" height="50" relative="1" as="geometry">
            <mxPoint x="220" y="380" as="sourcePoint" />
            <mxPoint x="270" y="330" as="targetPoint" />
          </mxGeometry>
        </mxCell>
        <mxCell id="z1qEJw_-4ceB0nApJG-8-8" value="" style="endArrow=classic;html=1;rounded=0;entryX=0.883;entryY=1;entryDx=0;entryDy=0;entryPerimeter=0;exitX=1;exitY=1;exitDx=0;exitDy=0;" edge="1" parent="1" source="z1qEJw_-4ceB0nApJG-8-5" target="z1qEJw_-4ceB0nApJG-8-2">
          <mxGeometry width="50" height="50" relative="1" as="geometry">
            <mxPoint x="360" y="600" as="sourcePoint" />
            <mxPoint x="410" y="550" as="targetPoint" />
          </mxGeometry>
        </mxCell>
        <mxCell id="z1qEJw_-4ceB0nApJG-8-9" value="pre-signed url" style="edgeLabel;html=1;align=center;verticalAlign=middle;resizable=0;points=[];" vertex="1" connectable="0" parent="z1qEJw_-4ceB0nApJG-8-8">
          <mxGeometry x="-0.0859" relative="1" as="geometry">
            <mxPoint as="offset" />
          </mxGeometry>
        </mxCell>
      </root>
    </mxGraphModel>
  </diagram>
</mxfile>
